<?xml version="1.0" encoding="UTF-8"?>
<svg id="Layer_1" xmlns="http://www.w3.org/2000/svg" version="1.1" viewBox="0 0 1274 207.8">
  <!-- Generator: Adobe Illustrator 30.1.0, SVG Export Plug-In . SVG Version: 2.1.1 Build 136)  -->
  <defs>
    <style>
      .st0 {
        fill: #003772;
      }

      .st0, .st1, .st2 {
        fill-rule: evenodd;
      }

      .st1 {
        fill: #fff;
      }

      .st2 {
        fill: #0062ae;
      }
    </style>
  </defs>
  <path class="st0" d="M1273.4,128l-.5,2.1-.6,2.1-.8,2-.9,1.9-1,1.8-1.2,1.6-1.3,1.5-1.4,1.4-1.5,1.3-1.6,1.2-1.6,1.1-1.7,1-1.8.8-1.8.7-1.8.6-1.9.5-1.9.4-1.9.2h-1.9c0,.1-1.9,0-1.9,0h-1.9c0-.1-1.9-.4-1.9-.4l-1.9-.4-1.9-.5-1.8-.7-1.8-.8-1.7-.9-1.7-1.1-1.6-1.2-1.5-1.4-1.4-1.5-2.7-3.3,10.8-7.8,1.7,2.3.4.5.5.5.5.5.5.4.5.4.5.4.6.4.6.3.6.3.6.3.6.2.7.2.7.2.7.2h.7c0,.1.8.3.8.3h.7c0,0,.7.1.7.1h.7s.7,0,.7,0h.7c0,0,.7-.2.7-.2h.7c0-.1.7-.3.7-.3l.7-.2.6-.2.6-.3.6-.3.6-.3.6-.4.6-.4.6-.5.6-.5.5-.5.5-.5.5-.5.4-.5.4-.5.4-.6.3-.6.3-.6.3-.6.3-.6.2-.7.2-.7.2-.7v-.7c.1,0,.3-1.1.3-1.1v-1.1c.1,0,.2-1,.2-1v-1s0-.9,0-.9v-.9c0,0-.2-.8-.2-.8l-.2-.8-.2-.7-.3-.7-.3-.6-.3-.6-.4-.5-.4-.5-.5-.5-.6-.5-.6-.5-.7-.5-.7-.5-.7-.5-.7-.5-.7-.5-.7-.5-.7-.5-.7-.5-.8-.5-.8-.5-.8-.5-.8-.5-.8-.4-.8-.4-.9-.5-.9-.5-.9-.5-.8-.5-.8-.5-.8-.5-.8-.5-.8-.5-.8-.5-.9-.7-.9-.7-.9-.7-.8-.7-.8-.8-.8-.8-.7-.8-.7-.9-.6-.9-.6-.9-.5-1-.5-1-.4-1.1-.4-1.1-.3-1.1-.3-1.2-.3-1.8-.2-1.8v-1.8s.1-1.8.1-1.8l.3-1.7.4-1.7.5-1.6.6-1.6.7-1.5.8-1.5.9-1.4,1-1.3,1.1-1.2,1.2-1.2,1.2-1.1,1.3-1,1-.7,1-.6,1-.6,1-.5,1-.4,1.1-.4,1.1-.3,1.1-.3,1.1-.2,1.1-.2h1.1c0-.1,1.1-.2,1.1-.2h1.2s1.2,0,1.2,0h1.2c0,.1,1.2.3,1.2.3l1.3.3,1.2.3,1.1.4,1.1.4,1.1.5,1.1.5,1,.6,1,.6,1,.6.9.7.9.7.8.8.8.8.8.9.7.9,2,2.7-10.8,7.6-1.6-2.1-.4-.4-.4-.4-.4-.4-.4-.4-.4-.3-.4-.3-.4-.3-.4-.3-.4-.2-.5-.2-.5-.2-.5-.2-.5-.2h-.5c0-.1-.5-.2-.5-.2h-.5c0,0-.5-.1-.5-.1h-.5s-.5,0-.5,0h-.5s-.5,0-.5,0h-.5c0,0-.5.2-.5.2h-.5c0,.1-.5.3-.5.3l-.5.2-.5.2-.5.2-.4.2-.4.3-.4.3-.9.7-.8.8-.7.9-.6,1-.5,1.1-.4,1.2-.3,1.2v1.2c-.1,0-.1,1.2-.1,1.2v1.2c.1,0,.4,1.2.4,1.2l.4,1.1.5,1,.6.9.8.8,1,.8.7.5.8.5.8.5.8.5.8.5.8.5.8.5.8.5.8.5.8.5.8.5.8.5.8.5.8.5.8.5.8.5.8.5.8.5.8.5.8.5.8.5.8.6.8.6.8.6.8.6.7.6.7.6.7.7.7.7.7.7.7.7.7.8.7.9.7,1,.6,1,.5,1.1.4,1.1.4,1.1.3,1.2.2,1.2.2,1.3v1.3c.1,0,.2,1.4.2,1.4v1.4s0,1.5,0,1.5v1.5c-.1,0-.3,1.5-.3,1.5M1210.4,94l-.3-1.3-.3-1.2-.4-1.2-.5-1.2-.5-1.2-.6-1.1-.6-1.1-.7-1.1-.8-1.1-.8-1-.9-1-1-1-1-1-1-.9-1-.8-1.1-.8-1.1-.7-1.1-.6-1.1-.6-1.2-.5-1.2-.5-1.2-.4-1.2-.3-1.3-.3-1.3-.2-1.3-.2h-1.4c0,0-1.4-.1-1.4-.1h-1.4s-1.4.1-1.4.1l-1.3.2-1.3.2-1.3.3-1.2.3-1.2.4-1.2.5-1.2.5-1.1.6-1.1.6-1.1.7-1.1.8-1.1.8-1,.9-1,1-1,1-.9,1-.8,1-.8,1.1-.7,1.1-.6,1.1-.6,1.1-.5,1.2-.5,1.2-.4,1.2-.3,1.2-.3,1.3-.2,1.3-.2,1.3v1.4c0,0-.1.8-.1.8h53.7v-.8s-.1-1.4-.1-1.4l-.2-1.3-.2-1.3ZM1211.7,140.4l-.8.7-.8.6-.8.6-.8.6-.8.6-.8.6-.8.5-.8.5-.9.5-.9.5-.9.4-.9.4-.9.4-.9.4-.9.3-.9.3-.9.3-.9.3-1,.3-1,.2-1,.2-1,.2-1,.2h-1c0,.1-1,.3-1,.3h-1c0,.1-1,.2-1,.2h-1c0,0-1,0-1,0h-1.1s-1,0-1,0h-1s-1,0-1,0h-1c0,0-1-.2-1-.2h-1c0-.1-1-.2-1-.2l-1-.2-1-.2-.9-.2-.9-.2-.9-.2-.9-.3-.9-.3-.9-.3-.9-.3-.9-.3-.9-.4-.9-.4-.9-.4-.8-.4-.8-.4-.8-.5-.8-.5-.8-.5-.8-.5-.8-.5-.8-.6-.8-.6-.8-.6-.8-.6-.8-.7-.8-.8-.7-.7-.7-.8-.7-.8-.6-.8-.6-.8-.6-.8-.6-.8-.5-.8-.5-.8-.5-.8-.5-.8-.4-.9-.4-.9-.4-.9-.4-.9-.4-.9-.3-.9-.3-.9-.3-.9-.3-.9-.2-.9-.2-1-.2-1-.2-1v-1c-.1,0-.3-1-.3-1v-1c-.1,0-.2-1-.2-1v-1c0,0,0-1,0-1v-1s0-12.1,0-12.1v-1s0-1,0-1v-1c0,0,.1-1,.1-1v-1c.1,0,.2-1,.2-1l.2-1,.2-1,.2-1,.2-.9.2-.9.3-.9.3-.9.3-.9.3-.9.4-.9.4-.9.4-.9.4-.9.5-.9.5-.8.5-.8.5-.8.5-.8.6-.8.6-.8.6-.8.6-.8.7-.8.7-.8.7-.7.7-.7.7-.7.8-.7.8-.7.8-.7.8-.6.8-.6.8-.6.8-.6.8-.5.8-.5.8-.5.9-.5.9-.5.9-.4.9-.4.9-.4.9-.4.9-.3.9-.3.9-.3.9-.3.9-.2.9-.2,1-.2,1-.2,1-.2h1c0-.1,1-.2,1-.2h1c0,0,1-.1,1-.1h1s1,0,1,0h1s1,0,1,0h1c0,0,1,.1,1,.1h1c0,.1,1,.2,1,.2h1c0,.1,1,.3,1,.3l1,.2.9.2.9.2.9.3.9.3.9.3.9.3.9.4.9.4.9.4.9.4.9.4.8.5.8.5.8.5.8.5.8.6.8.6.8.6.8.6.8.7.8.7.7.7.7.7.7.7.7.7.7.7.7.8.6.8.6.8.6.8.6.8.5.8.5.8.5.8.5.8.5.9.4.9.4.9.4.9.4.9.3.9.3.9.3.9.3.9.2.9.2,1,.2,1,.2,1,.2,1v1c.1,0,.2,1,.2,1v1c0,0,.1,1,.1,1v1s0,1,0,1v12.7h-67.1v.8s.1,1.4.1,1.4l.2,1.3.2,1.3.3,1.3.3,1.3.4,1.2.5,1.2.5,1.2.6,1.1.6,1.1.7,1.1.8,1.1.8,1.1.9,1,1,1,1,.9,1.1.9,1.1.8,1.1.8,1.1.7,1.1.6,1.2.6,1.2.5,1.2.5,1.2.4,1.2.3,1.3.3,1.3.2,1.3.2h1.3c0,0,1.3.1,1.3.1h1.4s1.4-.1,1.4-.1l1.4-.2,1.3-.2,1.3-.3,1.3-.4,1.3-.4,1.2-.5,1.2-.6,1.2-.6,1.2-.7,1.1-.8,1.1-.9,1.1-.9,1.1-1,2.6-2.6,9.4,9.4-2.3,2.2-.8.7ZM1139,60.8v51.6s0,1,0,1v1c0,0-.1,1-.1,1v1c-.1,0-.2,1-.2,1l-.2,1-.2,1-.2,1-.2.9-.2.9-.3.9-.3.9-.3.9-.3.9-.4.9-.4.9-.4.9-.4.9-.5.9-.5.8-.5.8-.5.8-.5.8-.6.8-.6.8-.6.8-.6.8-.7.8-.7.8-.7.8-.8.8-.8.7-.8.6-.8.6-.8.6-.8.6-.8.5-.8.5-.8.5-.8.5-.8.5-.8.4-.8.4-.9.4-.9.4-.9.4-.9.3-.9.3-.9.3-.9.3-.9.3-.9.2-.9.2-.9.2-.9.2-1,.2h-1c0,.1-1,.2-1,.2h-1c0,0-1,.2-1,.2h-1c0,0-1,0-1,0h-1s-1,0-1,0h-1s-1,0-1,0h-1c0,0-1-.2-1-.2h-1c0-.1-1-.2-1-.2l-1-.2-1-.2-.9-.2-.9-.2-.9-.2-.9-.3-.9-.3-.9-.3-.9-.3-.9-.3-.9-.4-.9-.4-.9-.4-.8-.4-.8-.4-.8-.5-.8-.5-.8-.5-.8-.5-.8-.5-.8-.6-.8-.6-.8-.6-.8-.6-.8-.7-.8-.8-.7-.7-.7-.8-.7-.8-.6-.8-.6-.8-.6-.8-.6-.8-.5-.8-.5-.8-.5-.8-.5-.8-.5-.9-.4-.9-.4-.9-.4-.9-.4-.9-.3-.9-.3-.9-.3-.9-.3-.9-.2-.9-.2-1-.2-1-.2-1v-1c-.1,0-.3-1-.3-1v-1c-.1,0-.2-1-.2-1v-1c0,0,0-1,0-1v-1s0-50.6,0-50.6h13.3v52s.1,1.3.1,1.3l.2,1.3.2,1.3.3,1.3.3,1.2.4,1.2.5,1.2.5,1.2.6,1.2.6,1.1.7,1.1.8,1.1.8,1.1.9,1.1.9,1,1,.9,1.1.9,1.1.8,1.1.8,1.1.7,1.1.6,1.2.6,1.2.5,1.2.5,1.2.4,1.2.3,1.3.3,1.3.2,1.3.2h1.3c0,0,1.4.1,1.4.1h1.4s1.4-.1,1.4-.1l1.3-.2,1.3-.2,1.3-.3,1.2-.3,1.2-.4,1.2-.5,1.2-.5,1.1-.6,1.1-.6,1.1-.7,1.1-.8,1-.8,1-.9,1-1,1-1,.9-1,.8-1.1.8-1.1.7-1.1.6-1.1.6-1.1.5-1.2.5-1.2.4-1.2.3-1.2.3-1.3.2-1.3.2-1.3v-1.4c0,0,.1-1.4.1-1.4v-50.6h13.3ZM1039.6,99.4v-1.4s-.1-1.4-.1-1.4l-.2-1.3-.2-1.3-.3-1.3-.3-1.2-.4-1.2-.5-1.2-.5-1.2-.6-1.1-.6-1.1-.7-1.1-.8-1.1-.8-1-.9-1-1-1-1-1-1-.9-1-.8-1.1-.8-1.1-.7-1.1-.6-1.1-.6-1.2-.5-1.2-.5-1.2-.4-1.2-.3-1.3-.3-1.3-.2-1.3-.2h-1.4c0,0-1.4-.1-1.4-.1h-1.4s-1.4.1-1.4.1l-1.3.2-1.3.2-1.3.3-1.2.3-1.2.4-1.2.5-1.2.5-1.1.6-1.1.6-1.1.7-1.1.8-1.1.8-1,.9-1,1-1,1-.9,1-.8,1-.8,1.1-.7,1.1-.6,1.1-.6,1.1-.5,1.2-.5,1.2-.4,1.2-.3,1.2-.3,1.3-.2,1.3-.2,1.3v1.4c0,0-.1,1.4-.1,1.4v13.5s.1,1.4.1,1.4l.2,1.3.2,1.3.3,1.3.3,1.3.4,1.2.5,1.2.5,1.2.6,1.1.6,1.1.7,1.1.8,1.1.8,1.1.9,1,1,1,1,.9,1.1.9,1.1.8,1.1.8,1.1.7,1.1.6,1.2.6,1.2.5,1.2.5,1.2.4,1.2.3,1.3.3,1.3.2,1.3.2h1.3c0,0,1.4.1,1.4.1h1.4s1.4-.1,1.4-.1l1.3-.2,1.3-.2,1.3-.3,1.2-.3,1.2-.4,1.2-.5,1.2-.5,1.1-.6,1.1-.6,1.1-.7,1.1-.8,1-.8,1-.9,1-1,1-1,.9-1,.8-1.1.8-1.1.7-1.1.6-1.1.6-1.1.5-1.2.5-1.2.4-1.2.3-1.2.3-1.3.2-1.3.2-1.3v-1.4c0,0,.1-1.4.1-1.4v-12ZM1033.7,145l-.9.5-1,.5-1,.5-1,.5-1,.4-1,.4-1,.4-1,.3-1,.3-1,.3-1.1.3-1.1.2-1.1.2-1.1.2h-1.1c0,.1-1.1.3-1.1.3h-1.1c0,0-1.1.2-1.1.2h-1.1s-1.1,0-1.1,0h-1s-1,0-1,0h-1c0,0-1-.1-1-.1h-1c0,0-1-.2-1-.2h-1c0-.1-1-.3-1-.3l-1-.2-.9-.2-.9-.2-.9-.2-.9-.3-.9-.3-.9-.3-.9-.3-.9-.3-.9-.4-.9-.4-.9-.4-.8-.4-.8-.4-.8-.5-.8-.5-.8-.5-.8-.5-.8-.5-.8-.6-.8-.6-.8-.6-.8-.6-.8-.7-.8-.8-.7-.7-.7-.8-.7-.8-.6-.8-.6-.8-.6-.8-.6-.8-.5-.8-.5-.8-.5-.8-.5-.8-.5-.9-.4-.9-.4-.9-.4-.9-.4-.9-.3-.9-.3-.9-.3-.9-.3-.9-.2-.9-.2-1-.2-1-.2-1v-1c-.1,0-.3-1-.3-1v-1c-.1,0-.2-1-.2-1v-1c0,0,0-1,0-1v-1s0-12.1,0-12.1v-1s0-1,0-1v-1c0,0,.1-1,.1-1v-1c.1,0,.2-1,.2-1l.2-1,.2-1,.2-1,.2-.9.2-.9.3-.9.3-.9.3-.9.3-.9.4-.9.4-.9.4-.9.4-.9.4-.9.5-.8.5-.8.5-.8.5-.8.6-.8.6-.8.6-.8.6-.8.7-.8.7-.8.7-.7.7-.7.7-.7.8-.7.8-.7.8-.7.8-.6.8-.6.8-.6.8-.6.8-.5.8-.5.8-.5.9-.5.9-.5.9-.4.9-.4.9-.4.9-.4.9-.3.9-.3.9-.3.9-.3.9-.2.9-.2,1-.2,1-.2,1-.2h1c0-.1,1-.2,1-.2h1c0,0,1-.1,1-.1h1s1,0,1,0h1s1,0,1,0h1c0,0,1,.1,1,.1h1c0,.1,1,.2,1,.2h1c0,.1,1,.3,1,.3l1,.2,1,.2.9.2.9.3.9.3.9.3.9.3.9.4.9.4.9.4.9.4.9.5.8.5.8.5.8.5.8.5.8.6.8.6.8.6.8.6.8.7.8.7.7.7.7.7.7.7.7.7.7.8.7.8.6.8.6.8.6.8.6.8.5.8.5.8.5.8.5.8.4.9.4.9.4.9.4.9.4.9.3.9.3.9.3.9.3.9.2.9.2.9.2,1,.2,1v1c.1,0,.3,1,.3,1v1c.1,0,.2,1,.2,1v1c0,0,0,1,0,1v1s0,99.2,0,99.2h-13.3v-57.9l-.7.6-.8.7-.8.7-.9.6-.9.6-.9.6-.9.6ZM905.2,150.1v-51.7s0-1,0-1v-1c0,0,.1-1,.1-1v-1c.1,0,.2-1,.2-1v-1c.1,0,.3-1,.3-1l.2-1,.2-.9.2-.9.3-.9.3-.9.3-.9.3-.9.4-.9.4-.9.4-.9.4-.9.5-.9.5-.8.5-.8.5-.8.5-.8.6-.8.6-.8.6-.8.6-.8.7-.8.7-.8.7-.7.7-.7.7-.7.8-.7.8-.7.8-.7.8-.6.8-.6.8-.6.8-.6.8-.5.8-.5.8-.5.8-.5.9-.5.9-.4.9-.4.9-.4.9-.4.9-.3.9-.3.9-.3.9-.3.9-.2.9-.2,1-.2,1-.2,1-.2h1c0-.1,1-.2,1-.2h1c0,0,1-.1,1-.1h1s1,0,1,0h1.1s1,0,1,0h1c0,0,1,.1,1,.1h1c0,.1,1,.2,1,.2l1,.2,1,.2,1,.2,1,.2,1,.3,1,.3.9.3.9.3.9.4.9.4.9.4.9.4.9.5.9.5.9.5.9.5.8.6.8.6.8.6.8.6.8.7.8.7.8.7.8.7.8.7,2.2,2.3-9.4,9.4-2.6-2.6-1-1-1.1-.9-1.1-.8-1.1-.8-1.1-.7-1.2-.6-1.2-.6-1.2-.5-1.3-.4-1.3-.4-1.3-.3-1.4-.2-1.4-.2h-1.4c0-.1-1.5-.1-1.5-.1h-1.4s-1.4.1-1.4.1l-1.3.2-1.3.2-1.3.3-1.2.3-1.2.4-1.2.5-1.2.5-1.1.6-1.1.6-1.1.7-1.1.8-1.1.8-1,.9-1,1-1,1-.9,1-.8,1-.8,1.1-.7,1.1-.6,1.1-.6,1.1-.5,1.2-.5,1.2-.4,1.2-.3,1.2-.3,1.3-.2,1.3-.2,1.3v1.4c0,0-.1,1.4-.1,1.4v50.7h-13.2ZM879,99.4v-1.4s-.1-1.4-.1-1.4l-.2-1.3-.2-1.3-.3-1.3-.3-1.2-.4-1.2-.5-1.2-.5-1.2-.6-1.1-.6-1.1-.7-1.1-.8-1.1-.8-1-.9-1-1-1-1-1-1-.9-1-.8-1.1-.8-1.1-.7-1.1-.6-1.1-.6-1.2-.5-1.2-.5-1.2-.4-1.2-.3-1.3-.3-1.3-.2-1.3-.2h-1.4c0,0-1.4-.1-1.4-.1h-1.4s-1.4.1-1.4.1l-1.3.2-1.3.2-1.3.3-1.2.3-1.2.4-1.2.5-1.2.5-1.1.6-1.1.6-1.1.7-1.1.8-1.1.8-1,.9-1,1-1,1-.9,1-.8,1-.8,1.1-.7,1.1-.6,1.1-.6,1.1-.5,1.2-.5,1.2-.4,1.2-.3,1.2-.3,1.3-.2,1.3-.2,1.3v1.4c0,0-.1,1.4-.1,1.4v13.5s.1,1.4.1,1.4l.2,1.3.2,1.3.3,1.3.3,1.3.4,1.2.5,1.2.5,1.2.6,1.1.6,1.1.7,1.1.8,1.1.8,1.1.9,1,1,1,1,.9,1.1.9,1.1.8,1.1.8,1.1.7,1.1.6,1.2.6,1.2.5,1.2.5,1.2.4,1.2.3,1.3.3,1.3.2,1.3.2h1.3c0,0,1.4.1,1.4.1h1.4s1.4-.1,1.4-.1l1.3-.2,1.3-.2,1.3-.3,1.2-.3,1.2-.4,1.2-.5,1.2-.5,1.1-.6,1.1-.6,1.1-.7,1.1-.8,1-.8,1-.9,1-1,1-1,.9-1,.8-1.1.8-1.1.7-1.1.6-1.1.6-1.1.5-1.2.5-1.2.4-1.2.3-1.2.3-1.3.2-1.3.2-1.3v-1.4c0,0,.1-1.4.1-1.4v-12ZM901.3,150.1h-4.9s-.8,0-.8,0h-.8c0,0-.8-.2-.8-.2h-.8c0-.1-.8-.3-.8-.3l-.8-.2-.8-.2-.7-.3-.7-.3-.7-.3-.7-.4-.7-.4-.7-.4-.6-.5-.6-.5-.6-.5-.6-.6-.5-.6-.5-.6-.5-.6-.5-.6-.4-.6-.4-.7-.4-.7-.3-.7-.2-.6-.3.3-.8.8-.8.7-.8.7-.8.7-.9.7-.9.6-.9.6-.9.6-1,.6-1,.5-1,.5-1,.5-1,.4-1,.4-1,.4-1,.4-1.1.3-1.1.3-1.1.3-1.1.2-1.1.2-1.1.2-1.1.2h-1.1c0,.1-1.1.2-1.1.2h-1.1c0,0-1.1.1-1.1.1h-1.1s-1,0-1,0h-1s-1,0-1,0h-1c0,0-1-.2-1-.2h-1c0-.1-1-.2-1-.2l-1-.2-1-.2-.9-.2-.9-.2-.9-.2-.9-.3-.9-.3-.9-.3-.9-.3-.9-.3-.9-.4-.9-.4-.9-.4-.8-.4-.8-.4-.8-.5-.8-.5-.8-.5-.8-.5-.8-.5-.8-.6-.8-.6-.8-.6-.8-.6-.8-.7-.8-.8-.7-.7-.7-.8-.7-.8-.6-.8-.6-.8-.6-.8-.6-.8-.5-.8-.5-.8-.5-.8-.5-.8-.5-.9-.4-.9-.4-.9-.4-.9-.4-.9-.3-.9-.3-.9-.3-.9-.3-.9-.2-.9-.2-1-.2-1-.2-1v-1c-.1,0-.3-1-.3-1v-1c-.1,0-.2-1-.2-1v-1c0,0,0-1,0-1v-1s0-12.1,0-12.1v-1s0-1,0-1v-1c0,0,.1-1,.1-1v-1c.1,0,.2-1,.2-1v-1c.1,0,.3-1,.3-1l.2-1,.2-.9.2-.9.3-.9.3-.9.3-.9.3-.9.4-.9.4-.9.4-.9.4-.9.4-.9.5-.8.5-.8.5-.8.5-.8.6-.8.6-.8.6-.8.6-.8.7-.8.7-.8.7-.7.7-.7.7-.7.8-.7.8-.7.8-.7.8-.6.8-.6.8-.6.8-.6.8-.5.8-.5.8-.5.9-.5.9-.5.9-.4.9-.4.9-.4.9-.4.9-.3.9-.3.9-.3.9-.3.9-.2.9-.2,1-.2,1-.2,1-.2h1c0-.1,1-.2,1-.2h1c0,0,1-.1,1-.1h1s1,0,1,0h1s1,0,1,0h1c0,0,1,.1,1,.1h1c0,.1,1,.2,1,.2h1c0,.1,1,.3,1,.3l1,.2,1,.2.9.2.9.3.9.3.9.3.9.3.9.4.9.4.9.4.9.4.9.5.8.5.8.5.8.5.8.5.8.6.8.6.8.6.8.6.8.7.8.7.7.7.7.7.7.7.7.7.7.8.7.8.6.8.6.8.6.8.6.8.5.8.5.8.5.8.5.8.4.9.4.9.4.9.4.9.4.9.3.9.3.9.3.9.3.9.2.9.2.9.2,1,.2,1,.2,1v1c.1,0,.2,1,.2,1v1c0,0,.1,1,.1,1v1s0,1,0,1v33.7c0,0,.3,1.1.3,1.1l.4.8.5.6.6.5.8.4,1.1.3h1.4c0,0,3.8,0,3.8,0v13.2ZM745.2,150.1l-36.2-99v99h-13.2V31.8h20.4l34.8,95.6,34.8-95.6h20.4v118.3h-13.3V51.1l-36,99h-11.7ZM644.8,94l-.3-1.3-.3-1.2-.4-1.2-.5-1.2-.5-1.2-.6-1.1-.6-1.1-.7-1.1-.8-1.1-.8-1-.9-1-1-1-1-1-1-.9-1-.8-1.1-.8-1.1-.7-1.1-.6-1.1-.6-1.2-.5-1.2-.5-1.2-.4-1.2-.3-1.3-.3-1.3-.2-1.3-.2h-1.4c0,0-1.4-.1-1.4-.1h-1.4s-1.4.1-1.4.1l-1.3.2-1.3.2-1.3.3-1.2.3-1.2.4-1.2.5-1.2.5-1.1.6-1.1.6-1.1.7-1.1.8-1.1.8-1,.9-1,1-1,1-.9,1-.8,1-.8,1.1-.7,1.1-.6,1.1-.6,1.1-.5,1.2-.5,1.2-.4,1.2-.3,1.2-.3,1.3-.2,1.3-.2,1.3v1.4c0,0-.1.8-.1.8h53.7v-.8s-.1-1.4-.1-1.4l-.2-1.3-.2-1.3ZM646.1,140.4l-.8.7-.8.6-.8.6-.8.6-.8.6-.8.6-.8.5-.8.5-.9.5-.9.5-.9.4-.9.4-.9.4-.9.4-.9.3-.9.3-.9.3-.9.3-1,.3-1,.2-1,.2-1,.2-1,.2h-1c0,.1-1,.3-1,.3h-1c0,.1-1,.2-1,.2h-1c0,0-1.1,0-1.1,0h-1.1s-1,0-1,0h-1s-1,0-1,0h-1c0,0-1-.2-1-.2h-1c0-.1-1-.2-1-.2l-1-.2-1-.2-.9-.2-.9-.2-.9-.2-.9-.3-.9-.3-.9-.3-.9-.3-.9-.3-.9-.4-.9-.4-.9-.4-.8-.4-.8-.4-.8-.5-.8-.5-.8-.5-.8-.5-.8-.5-.8-.6-.8-.6-.8-.6-.8-.6-.8-.7-.8-.8-.7-.7-.7-.8-.7-.8-.6-.8-.6-.8-.6-.8-.6-.8-.5-.8-.5-.8-.5-.8-.5-.8-.4-.9-.4-.9-.4-.9-.4-.9-.4-.9-.3-.9-.3-.9-.3-.9-.3-.9-.2-.9-.2-1-.2-1-.2-1-.2-1v-1c-.1,0-.2-1-.2-1v-1c0,0-.1-1-.1-1v-1s0-1,0-1v-13.1s0-1,0-1v-1c0,0,.1-1,.1-1v-1c.1,0,.2-1,.2-1l.2-1,.2-1,.2-1,.2-.9.2-.9.3-.9.3-.9.3-.9.3-.9.4-.9.4-.9.4-.9.4-.9.4-.9.5-.8.5-.8.5-.8.5-.8.6-.8.6-.8.6-.8.6-.8.7-.8.7-.8.7-.7.7-.7.7-.7.8-.7.8-.7.8-.7.8-.6.8-.6.8-.6.8-.6.8-.5.8-.5.8-.5.8-.5.9-.5.9-.4.9-.4.9-.4.9-.4.9-.3.9-.3.9-.3.9-.3.9-.2.9-.2,1-.2,1-.2,1-.2h1c0-.1,1-.2,1-.2h1c0,0,1-.1,1-.1h1s1,0,1,0h1s1,0,1,0h1c0,0,1,.1,1,.1h1c0,.1,1,.2,1,.2h1c0,.1,1,.3,1,.3l1,.2.9.2.9.2.9.3.9.3.9.3.9.3.9.4.9.4.9.4.9.4.9.4.8.5.8.5.8.5.8.5.8.6.8.6.8.6.8.6.8.7.8.7.7.7.7.7.7.7.7.7.7.7.7.8.6.8.6.8.6.8.6.8.5.8.5.8.5.8.5.8.5.9.4.9.4.9.4.9.4.9.3.9.3.9.3.9.3.9.2.9.2,1,.2,1,.2,1,.2,1v1c.1,0,.2,1,.2,1v1c0,0,.1,1,.1,1v1s0,1,0,1v12.7h-67.1v.8s.1,1.4.1,1.4l.2,1.3.2,1.3.3,1.3.3,1.3.4,1.2.5,1.2.5,1.2.6,1.2.6,1.1.7,1.1.8,1.1.8,1.1.9,1,1,1,1,.9,1.1.9,1.1.8,1.1.8,1.1.7,1.1.6,1.2.6,1.2.5,1.2.5,1.2.4,1.2.3,1.3.3,1.3.2,1.3.2h1.3c0,0,1.3.1,1.3.1h1.4s1.4-.1,1.4-.1l1.4-.2,1.3-.2,1.3-.3,1.3-.4,1.3-.4,1.2-.5,1.2-.6,1.2-.6,1.2-.7,1.1-.8,1.1-.9,1.1-.9,1.1-1,2.6-2.6,9.4,9.4-2.3,2.2-.8.7ZM560.5,99.4v-1.4s-.1-1.4-.1-1.4l-.2-1.3-.2-1.3-.3-1.3-.3-1.2-.4-1.2-.5-1.2-.5-1.2-.6-1.1-.6-1.1-.7-1.1-.8-1.1-.8-1-.9-1-1-1-1-1-1-.9-1-.8-1.1-.8-1.1-.7-1.1-.6-1.1-.6-1.2-.5-1.2-.5-1.2-.4-1.2-.3-1.3-.3-1.3-.2-1.3-.2h-1.4c0,0-1.4-.1-1.4-.1h-1.4s-1.4.1-1.4.1l-1.3.2-1.3.2-1.3.3-1.2.3-1.2.4-1.2.5-1.2.5-1.1.6-1.1.6-1.1.7-1.1.8-1.1.8-1,.9-1,1-1,1-.9,1-.8,1-.8,1.1-.7,1.1-.6,1.1-.6,1.1-.5,1.2-.5,1.2-.4,1.2-.3,1.2-.3,1.3-.2,1.3-.2,1.3v1.4c0,0-.1,1.4-.1,1.4v13.5s.1,1.4.1,1.4l.2,1.3.2,1.3.3,1.3.3,1.3.4,1.2.5,1.2.5,1.2.6,1.2.6,1.1.7,1.1.8,1.1.8,1.1.9,1,1,1,1,.9,1.1.9,1.1.8,1.1.8,1.1.7,1.1.6,1.2.6,1.2.5,1.2.5,1.2.4,1.2.3,1.3.3,1.3.2,1.3.2h1.3c0,0,1.3.1,1.3.1h1.4s1.4-.1,1.4-.1l1.3-.2,1.3-.2,1.3-.3,1.2-.3,1.2-.4,1.2-.5,1.2-.5,1.1-.6,1.1-.6,1.1-.7,1.1-.8,1-.8,1-.9,1-1,1-1,.9-1,.8-1.1.8-1.1.7-1.1.6-1.1.6-1.1.5-1.2.5-1.2.4-1.2.3-1.2.3-1.3.2-1.3.2-1.3v-1.4c0,0,.1-1.4.1-1.4v-12ZM572.2,150l-.3.9-.3.9-.3.9-.4.9-.4.8-.4.8-.4.8-.4.8-.5.8-.5.8-.5.8-.5.8-.6.8-.6.8-.6.8-.6.8-.6.8-.7.7-.7.7-.7.7-.7.7-.8.7-.8.7-.8.7-.8.6-.8.6-.8.6-.8.6-.8.5-.8.5-.8.5-.8.5-.9.5-.9.4-.9.4-.9.4-.9.4-.9.3-.9.3-.9.3-.9.3-.9.2-.9.2-1,.2-1,.2-1,.2h-1c0,.1-1,.2-1,.2h-1c0,0-1,.1-1,.1h-1s-1,0-1,0h-1.1s-1.1,0-1.1,0h-1.1c0,0-1-.1-1-.1h-1c0-.1-1-.2-1-.2l-1-.2-1-.2-1-.2-1-.2-1-.3-1-.3-1-.3-.9-.3-.9-.4-.9-.4-.9-.4-.9-.4-.9-.5-.9-.5-.9-.5-.9-.5-.8-.6-.8-.6-.8-.6-.8-.6-.8-.7-.8-.7-.8-.7-.8-.7-.7-.7-2.2-2.3,9.4-9.4,2.6,2.6,1,1,1.1.9,1.1.8,1.1.8,1.1.7,1.2.6,1.2.6,1.2.5,1.3.4,1.3.4,1.3.3,1.4.2,1.4.2h1.4c0,0,1.5.1,1.5.1h1.4s1.4-.1,1.4-.1l1.3-.2,1.3-.2,1.3-.3,1.2-.3,1.2-.4,1.2-.5,1.2-.5,1.1-.6,1.1-.6,1.1-.7,1.1-.8,1-.8,1-.9,1-1,1-1,.9-1,.8-1,.8-1,.7-1,.6-1.1.6-1.1.5-1.1.5-1.1.4-1.1.3-1.1.3-1.2.2-1.2.2-1.2h0c0-.1-.6.4-.6.4l-.8.7-.8.6-.9.6-.9.6-.9.6-.9.5-.9.5-1,.5-1,.4-1,.4-1,.4-1,.4-1,.3-1,.3-1,.3-1,.3-1.1.2-1.1.2-1.1.2-1.1.2h-1.1c0,.1-1.1.3-1.1.3h-1.1c0,0-1.1.1-1.1.1h-1.1s-1.1,0-1.1,0h-1s-1,0-1,0h-1c0,0-1-.1-1-.1h-1c0,0-1-.2-1-.2h-1c0-.1-1-.3-1-.3l-1-.2-.9-.2-.9-.2-.9-.2-.9-.3-.9-.3-.9-.3-.9-.3-.9-.3-.9-.4-.9-.4-.9-.4-.8-.4-.8-.4-.8-.5-.8-.5-.8-.5-.8-.5-.8-.5-.8-.6-.8-.6-.8-.6-.8-.6-.8-.7-.8-.8-.7-.7-.7-.8-.7-.8-.6-.8-.6-.8-.6-.8-.6-.8-.5-.8-.5-.8-.5-.8-.5-.8-.4-.9-.4-.9-.4-.9-.4-.9-.4-.9-.3-.9-.3-.9-.3-.9-.3-.9-.2-.9-.2-1-.2-1-.2-1-.2-1v-1c-.1,0-.2-1-.2-1v-1c0,0-.1-1-.1-1v-1s0-1,0-1v-13.1s0-1,0-1v-1c0,0,.1-1,.1-1v-1c.1,0,.2-1,.2-1l.2-1,.2-1,.2-1,.2-.9.2-.9.3-.9.3-.9.3-.9.3-.9.4-.9.4-.9.4-.9.4-.9.4-.9.5-.8.5-.8.5-.8.5-.8.6-.8.6-.8.6-.8.6-.8.7-.8.7-.8.7-.7.7-.7.7-.7.8-.7.8-.7.8-.7.8-.6.8-.6.8-.6.8-.6.8-.5.8-.5.8-.5.8-.5.9-.5.9-.4.9-.4.9-.4.9-.4.9-.3.9-.3.9-.3.9-.3.9-.2.9-.2,1-.2,1-.2,1-.2h1c0-.1,1-.2,1-.2h1c0,0,1-.1,1-.1h1s1,0,1,0h1s1,0,1,0h1c0,0,1,.1,1,.1h1c0,.1,1,.2,1,.2h1c0,.1,1,.3,1,.3l1,.2,1,.2.9.2.9.3.9.3.9.3.9.3.9.4.9.4.9.4.9.4.9.5.8.5.8.5.8.5.8.5.8.6.8.6.8.6.8.6.8.7.8.7.7.7.7.7.7.7.7.7.7.8.7.8.6.8.6.8.6.8.6.8.5.8.5.8.5.8.5.8.5.9.4.9.4.9.4.9.4.9.3.9.3.9.3.9.3.9.2.9.2,1,.2,1,.2,1v1c.1,0,.3,1,.3,1v1c.1,0,.2,1,.2,1v1c0,0,0,1,0,1v1s0,39.7,0,39.7v.9s0,.9,0,.9v.9c0,0-.1.9-.1.9v.9c-.1,0-.2.9-.2.9l-.2.9-.2.9-.2.9-.2.9-.2.9-.3.9ZM427.3,150.1v-51.7s0-1,0-1v-1c0,0,.1-1,.1-1v-1c.1,0,.2-1,.2-1l.2-1,.2-1,.2-1,.2-.9.2-.9.3-.9.3-.9.3-.9.3-.9.4-.9.4-.9.4-.9.4-.9.4-.9.5-.8.5-.8.5-.8.5-.8.6-.8.6-.8.6-.8.6-.8.7-.8.7-.8.7-.7.7-.7.7-.7.8-.7.8-.7.8-.7.8-.6.8-.6.8-.6.8-.6.8-.5.8-.5.8-.5.8-.5.9-.5.9-.4.9-.4.9-.4.9-.4.9-.3.9-.3.9-.3.9-.3.9-.2.9-.2,1-.2,1-.2,1-.2h1c0-.1,1-.2,1-.2h1c0,0,1-.1,1-.1h1s1,0,1,0h1.1s1,0,1,0h1c0,0,1,.1,1,.1h1c0,.1,1,.2,1,.2l1,.2,1,.2,1,.2,1,.2,1,.3,1,.3.9.3.9.3.9.4.9.4.9.4.9.4.9.5.9.5.9.5.9.5.8.6.8.6.8.6.8.6.8.7.8.7.8.7.8.7.8.7,2.2,2.3-9.4,9.4-2.6-2.6-1-1-1.1-.9-1.1-.8-1.1-.8-1.1-.7-1.2-.6-1.2-.6-1.2-.5-1.3-.4-1.3-.4-1.3-.3-1.4-.2-1.4-.2h-1.4c0-.1-1.5-.1-1.5-.1h-1.4s-1.4.1-1.4.1l-1.3.2-1.3.2-1.3.3-1.2.3-1.2.4-1.2.5-1.2.5-1.1.6-1.1.6-1.1.7-1.1.8-1.1.8-1,.9-1,1-1,1-.9,1-.8,1-.8,1.1-.7,1.1-.6,1.1-.6,1.1-.5,1.2-.5,1.2-.4,1.2-.3,1.2-.3,1.3-.2,1.3-.2,1.3v1.4c0,0-.1,1.4-.1,1.4v50.7h-13.2ZM409.3,99.4v-1.4s-.1-1.4-.1-1.4l-.2-1.3-.2-1.3-.3-1.3-.3-1.2-.4-1.2-.5-1.2-.5-1.2-.6-1.1-.6-1.1-.7-1.1-.8-1.1-.8-1-.9-1-1-1-1-1-1-.9-1-.8-1.1-.8-1.1-.7-1.1-.6-1.1-.6-1.2-.5-1.2-.5-1.2-.4-1.2-.3-1.3-.3-1.3-.2-1.3-.2h-1.4c0,0-1.4-.1-1.4-.1h-1.4s-1.4.1-1.4.1l-1.3.2-1.3.2-1.3.3-1.2.3-1.2.4-1.2.5-1.2.5-1.1.6-1.1.6-1.1.7-1.1.8-1.1.8-1,.9-1,1-1,1-.9,1-.8,1-.8,1.1-.7,1.1-.6,1.1-.6,1.1-.5,1.2-.5,1.2-.4,1.2-.3,1.2-.3,1.3-.2,1.3-.2,1.3v1.4c0,0-.1,1.4-.1,1.4v13.5s.1,1.4.1,1.4l.2,1.3.2,1.3.3,1.3.3,1.3.4,1.2.5,1.2.5,1.2.6,1.2.6,1.1.7,1.1.8,1.1.8,1.1.9,1,1,1,1,.9,1.1.9,1.1.8,1.1.8,1.1.7,1.1.6,1.2.6,1.2.5,1.2.5,1.2.4,1.2.3,1.3.3,1.3.2,1.3.2h1.3c0,0,1.3.1,1.3.1h1.4s1.4-.1,1.4-.1l1.3-.2,1.3-.2,1.3-.3,1.2-.3,1.2-.4,1.2-.5,1.2-.5,1.1-.6,1.1-.6,1.1-.7,1.1-.8,1-.8,1-.9,1-1,1-1,.9-1,.8-1.1.8-1.1.7-1.1.6-1.1.6-1.1.5-1.2.5-1.2.4-1.2.3-1.2.3-1.3.2-1.3.2-1.3v-1.4c0,0,.1-1.4.1-1.4v-12ZM422.6,99.3v13.1s0,1,0,1v1c0,0-.1,1-.1,1v1c-.1,0-.2,1-.2,1l-.2,1-.2,1-.2,1-.2.9-.2.9-.3.9-.3.9-.3.9-.3.9-.4.9-.4.9-.4.9-.4.9-.5.9-.5.8-.5.8-.5.8-.5.8-.6.8-.6.8-.6.8-.6.8-.7.8-.7.8-.7.8-.8.8-.8.7-.8.6-.8.6-.8.6-.8.6-.8.5-.8.5-.8.5-.8.5-.8.5-.8.4-.8.4-.9.4-.9.4-.9.4-.9.3-.9.3-.9.3-.9.3-.9.3-.9.2-.9.2-.9.2-.9.2-1,.2h-1c0,.1-1,.2-1,.2h-1c0,0-1,.2-1,.2h-1c0,0-1,0-1,0h-1s-1,0-1,0h-1s-1,0-1,0h-1c0,0-1-.2-1-.2h-1c0-.1-1-.2-1-.2l-1-.2-1-.2-.9-.2-.9-.2-.9-.2-.9-.3-.9-.3-.9-.3-.9-.3-.9-.3-.9-.4-.9-.4-.9-.4-.8-.4-.8-.4-.8-.5-.8-.5-.8-.5-.8-.5-.8-.5-.8-.6-.8-.6-.8-.6-.8-.6-.8-.7-.8-.8-.7-.7-.7-.8-.7-.8-.6-.8-.6-.8-.6-.8-.6-.8-.5-.8-.5-.8-.5-.8-.5-.8-.4-.9-.4-.9-.4-.9-.4-.9-.4-.9-.3-.9-.3-.9-.3-.9-.3-.9-.2-.9-.2-1-.2-1-.2-1v-1c-.1,0-.3-1-.3-1v-1c-.1,0-.2-1-.2-1v-1c0,0,0-1,0-1v-1s0-12.1,0-12.1v-1s0-1,0-1v-1c0,0,.1-1,.1-1v-1c.1,0,.2-1,.2-1l.2-1,.2-1,.2-1,.2-.9.2-.9.3-.9.3-.9.3-.9.3-.9.4-.9.4-.9.4-.9.4-.9.4-.9.5-.8.5-.8.5-.8.5-.8.6-.8.6-.8.6-.8.6-.8.7-.8.7-.8.7-.7.7-.7.7-.7.8-.7.8-.7.8-.7.8-.6.8-.6.8-.6.8-.6.8-.5.8-.5.8-.5.8-.5.9-.5.9-.4.9-.4.9-.4.9-.4.9-.3.9-.3.9-.3.9-.3.9-.2.9-.2,1-.2,1-.2,1-.2h1c0-.1,1-.2,1-.2h1c0,0,1-.1,1-.1h1s1,0,1,0h1s1,0,1,0h1c0,0,1,.1,1,.1h1c0,.1,1,.2,1,.2h1c0,.1,1,.3,1,.3l1,.2,1,.2.9.2.9.3.9.3.9.3.9.3.9.4.9.4.9.4.9.4.9.5.8.5.8.5.8.5.8.5.8.6.8.6.8.6.8.6.8.7.8.7.7.7.7.7.7.7.7.7.7.8.7.8.6.8.6.8.6.8.6.8.5.8.5.8.5.8.5.8.5.9.4.9.4.9.4.9.4.9.3.9.3.9.3.9.3.9.2.9.2,1,.2,1,.2,1v1c.1,0,.3,1,.3,1v1c.1,0,.2,1,.2,1v1c0,0,0,1,0,1v1ZM324.1,31.8h13.2v76.3s0,1.1,0,1.1v1.1c0,0-.2,1.1-.2,1.1v1.1c-.1,0-.3,1.1-.3,1.1l-.2,1.1-.2,1.1-.2,1.1-.2,1.1-.3,1-.3,1-.3,1-.3,1-.4,1-.4,1-.4,1-.4,1-.5,1-.5,1-.5.9-.6.9-.6.9-.6.9-.6.9-.7.9-.7.9-.7.9-.7.9-.8.8-.8.8-.8.9-.9.8-.8.7-.8.7-.9.7-.9.6-.9.6-.9.6-.9.6-.9.5-.9.5-.9.5-.9.5-1,.5-1,.4-1,.4-1,.4-1,.4-1,.3-1,.3-1,.3-1,.3-1,.2-1.1.2-1.1.2-1.1.2-1.1.2h-1.1c0,.1-1.1.2-1.1.2h-1.1c0,0-1.1.1-1.1.1h-1.1s-1.1,0-1.1,0h-1.1s-1.1,0-1.1,0h-1.1c0,0-1.1-.1-1.1-.1h-1.1c0-.1-1.1-.2-1.1-.2l-1.1-.2-1.1-.2-1.1-.2-1-.2-1-.2-1-.3-1-.3-1-.3-1-.3-1-.4-1-.4-1-.4-.9-.4-.9-.5-.9-.5-.9-.5-.9-.5-.9-.6-.9-.6-.9-.6-.9-.6-.8-.6-.8-.7-.8-.7-.8-.7-2.3-2.2,8.9-9.5,2.2,2.1.6.6.6.5.6.5.6.5.6.5.6.5.6.4.6.4.6.4.7.4.7.4.7.4.7.3.7.3.7.3.7.3.7.3.7.2.7.2.7.2.7.2.7.2.7.2h.7c0,.1.8.3.8.3h.8c0,.1.8.2.8.2h.8c0,0,.8.1.8.1h.8s.8,0,.8,0h.8s.8,0,.8,0h.8s.8-.1.8-.1h.8c0,0,.8-.2.8-.2h.8c0-.1.7-.2.7-.2l.7-.2.7-.2.7-.2.7-.2.7-.2.7-.2.7-.3.7-.3.7-.3.7-.3.7-.3.7-.3.7-.4.7-.4.7-.4.6-.4.6-.4.6-.5.6-.5.6-.5.6-.5.6-.5.6-.5.6-.6.6-.6.6-.6.5-.6.5-.6.5-.6.5-.6.5-.6.4-.6.4-.6.4-.6.4-.7.4-.7.4-.7.3-.7.3-.7.3-.7.3-.7.3-.7.2-.7.2-.7.2-.7.2-.7.2-.7.2-.7v-.8c.1,0,.3-.8.3-.8v-.8c0,0,.2-.8.2-.8v-.8c0,0,.1-.8.1-.8v-.8s0-.8,0-.8V31.8Z"/>
  <path class="st2" d="M1262.4,198.2h-.5c0,0-.5-.2-.5-.2h-.5c0-.1-.5-.2-.5-.2l-.4-.2-.4-.2-.4-.2-.4-.2-.4-.3-.4-.3-.4-.3-.4-.3-.4-.3-.3-.4-.3-.4-1.1-1.4,4.5-3.2,1,1.3.3.3.3.3.3.2.4.2.4.2h.4c0,.1.5.2.5.2h.5c0,0,.4,0,.4,0h.4s.4,0,.4,0h.4c0-.1.4-.3.4-.3l.4-.2.4-.3.4-.3.3-.3.3-.3.2-.3.2-.4.2-.4v-.4c.1,0,.2-.5.2-.5v-.4c0,0,0-.4,0-.4v-.3s0-.3,0-.3v-.3s0-.3,0-.3v-.3s0-.2,0-.2v-.2c0,0-.1-.2-.1-.2v-.2c0,0-.2-.2-.2-.2v-.2c-.1,0-.2-.1-.2-.1h-.1c0-.1-.2-.3-.2-.3l-.2-.2-.2-.2-.2-.2-.2-.2-.2-.2-.2-.2-.2-.2-.2-.2-.3-.2-.3-.2-.3-.2-.3-.2-.3-.2h-.3c0-.1-.3-.3-.3-.3l-.3-.2-.3-.2-.3-.2-.3-.2-.3-.2-.3-.2-.3-.2-.3-.2-.3-.2-.3-.2-.3-.2-.3-.2-.3-.2-.3-.2-.3-.2-.2-.2-.3-.2-.3-.3-.3-.3-.2-.3-.2-.4-.2-.4v-.4c-.1,0-.3-.4-.3-.4v-.4c0,0-.2-.4-.2-.4v-.4s0-.5,0-.5v-.5s0-.5,0-.5v-.5s0-.5,0-.5v-.5c0,0,.2-.4.2-.4v-.4c0,0,.2-.4.2-.4v-.4c.1,0,.3-.4.3-.4l.2-.4.2-.4.2-.4.2-.3.2-.3.3-.3.3-.3.3-.3.3-.3.3-.3.3-.3.3-.2.4-.2.4-.2.4-.2.4-.2h.4c0-.1.4-.3.4-.3h.4c0-.1.4-.2.4-.2h.4c0,0,.4-.1.4-.1h.4s.4,0,.4,0h.4s.4,0,.4,0h.5c0,0,.5.2.5.2h.4c0,.1.4.2.4.2h.4c0,.1.4.3.4.3l.4.2.4.2.4.2.3.2.3.3.3.3.3.3.3.3.3.3.3.3,1,1.3-4.4,3.1-.9-1.2-.2-.2-.2-.2-.2-.2h-.3c0-.1-.3-.3-.3-.3h-.3c0-.1-.3-.2-.3-.2h-.3s-.3,0-.3,0h-.3s-.3,0-.3,0h-.3c0,0-.3.2-.3.2h-.3c0,.1-.3.3-.3.3l-.2.2-.2.2-.2.2-.2.2v.2c-.1,0-.2.3-.2.3v.3c0,0-.2.3-.2.3v.6c0,0,0,.5,0,.5v.4c0,0,.2.4.2.4v.3c.1,0,.3.3.3.3l.2.3.3.3.4.3.5.3.5.3.5.3.5.3.5.3.6.3.6.3.6.4.6.4.6.4.6.4.5.5.5.5.5.5.5.5.3.3.2.4.2.4.2.4.2.4v.4c.1,0,.3.4.3.4v.5c0,0,.2.5.2.5v.5s0,.5,0,.5v1s0,.5,0,.5v.5c0,0-.1.6-.1.6v.5c-.1,0-.2.5-.2.5v.5c-.1,0-.3.5-.3.5l-.2.5-.2.4-.2.4-.2.4-.3.4-.3.4-.3.4-.3.4-.3.3-.4.3-.4.3-.5.3-.5.2-.4.2-.4.2-.4.2h-.4c0,.1-.4.3-.4.3h-.4c0,.1-.4.2-.4.2h-.5c0,0-.5.2-.5.2h-.5c0,0-.5,0-.5,0h-.5s-.5,0-.5,0h-.5M1244.6,180.3v-.5s0-.4,0-.4v-.4c0,0-.1-.4-.1-.4v-.4c0,0-.2-.4-.2-.4v-.4c-.1,0-.3-.4-.3-.4l-.2-.4-.2-.4-.2-.4-.2-.4-.3-.3-.3-.3-.3-.3-.3-.3-.3-.3-.3-.3-.3-.3-.3-.3-.4-.2-.4-.2-.4-.2-.4-.2h-.4c0-.1-.4-.3-.4-.3h-.4c0-.1-.4-.2-.4-.2h-.4c0,0-.4-.1-.4-.1h-.4s-.5,0-.5,0h-.5s-.4,0-.4,0h-.4c0,0-.4.1-.4.1h-.4c0,0-.4.2-.4.2h-.4c0,.1-.4.3-.4.3l-.4.2-.4.2-.4.2-.4.2-.4.3-.3.3-.3.3-.3.3-.3.3-.3.3-.3.3-.3.3-.2.4-.2.4-.2.4-.2.4-.2.4v.4c-.1,0-.2.4-.2.4v.4c0,0-.2.4-.2.4v.4c0,0,0,.4,0,.4v.5s0,4.1,0,4.1v.5s0,.4,0,.4v.4c0,0,.1.4.1.4v.4c0,0,.2.4.2.4v.4c.1,0,.3.4.3.4l.2.4.2.4.2.4.2.4.3.4.3.3.3.3.3.3.3.3.3.3.4.3.4.3.4.2.4.2.4.2.4.2h.4c0,.1.4.3.4.3h.4c0,.1.4.2.4.2h.4c0,0,.4.1.4.1h.4s.4,0,.4,0h.5s.4,0,.4,0h.4c0,0,.4-.1.4-.1h.4c0,0,.4-.2.4-.2h.4c0-.1.4-.3.4-.3l.4-.2.4-.2.4-.2.4-.2.3-.3.3-.3.3-.3.3-.3.3-.3.3-.3.3-.3.3-.4.2-.4.2-.4.2-.4.2-.4v-.4c.1,0,.3-.4.3-.4v-.4c.1,0,.2-.4.2-.4v-.4c0,0,.1-.4.1-.4v-.4s0-.5,0-.5v-4.1ZM1250.1,180.3v4.9s0,.7,0,.7v.7c0,0-.2.7-.2.7v.7c-.1,0-.3.7-.3.7l-.2.7-.2.6-.3.6-.3.6-.3.6-.4.6-.4.6-.4.6-.5.5-.5.6-.6.5-.5.4-.6.4-.6.4-.6.3-.6.3-.6.3-.6.3-.6.2-.6.2-.7.2h-.7c0,.1-.7.2-.7.2h-.7c0,0-.7.1-.7.1h-.7s-.7,0-.7,0h-.7s-.7-.1-.7-.1h-.7c0-.1-.7-.2-.7-.2l-.7-.2-.6-.2-.6-.2-.6-.3-.6-.3-.6-.3-.6-.3-.6-.4-.6-.4-.5-.4-.6-.5-.5-.5-.5-.5-.4-.6-.4-.6-.4-.6-.3-.6-.3-.6-.3-.6-.2-.6-.2-.7-.2-.7v-.7c-.1,0-.3-.7-.3-.7v-.7c0,0-.1-.7-.1-.7v-.7s0-4.2,0-4.2v-.7s0-.7,0-.7v-.7c0,0,.2-.7.2-.7v-.7c.1,0,.3-.7.3-.7l.2-.7.2-.6.3-.6.3-.6.3-.6.4-.6.4-.6.4-.6.5-.5.5-.5.5-.5.5-.5.6-.4.6-.4.6-.4.6-.3.6-.3.6-.3.6-.2.7-.2.7-.2h.7c0-.1.7-.3.7-.3h.7c0,0,.7-.1.7-.1h.7s.7,0,.7,0h.7s.7.1.7.1h.7c0,.1.7.3.7.3l.7.2.7.2.6.2.6.3.6.3.6.3.6.4.6.4.6.4.5.5.5.5.5.5.5.5.4.6.4.6.4.6.3.6.3.6.3.6.2.6.2.7.2.7v.7c.1,0,.3.7.3.7v.7c0,0,.1.7.1.7v.7ZM1193.4,198.2v-18.6s0-.7,0-.7v-.7c0,0,.2-.7.2-.7v-.7c.1,0,.3-.7.3-.7l.2-.7.2-.6.3-.6.3-.6.3-.6.4-.6.4-.6.4-.6.5-.5.5-.5.5-.5.5-.5.6-.4.6-.4.6-.4.6-.3.6-.3.6-.3.6-.2.7-.2.7-.2h.7c0-.1.7-.3.7-.3h.7c0,0,.7-.1.7-.1h.7s.7,0,.7,0h.7c0,0,.7.1.7.1h.7c0,.1.7.3.7.3l.7.2.7.2.7.3.6.3.6.3.6.4.6.4.6.4.6.5.6.5,1.4,1.4-3.9,3.9-1.2-1.2-.3-.3-.3-.3-.4-.3-.4-.2-.4-.2-.4-.2-.4-.2-.4-.2h-.4c0-.1-.4-.3-.4-.3h-.4c0,0-.4-.2-.4-.2h-.5c0,0-.5,0-.5,0h-.5s-.5,0-.5,0h-.4s-.4,0-.4,0h-.4c0,0-.4.2-.4.2h-.4c0,.1-.4.2-.4.2l-.4.2-.4.2-.4.2-.4.2-.4.2-.4.3-.3.3-.3.3-.3.3-.3.3-.3.3-.3.3-.3.3-.2.4-.2.4-.2.4-.2.4-.2.4v.4c-.1,0-.2.4-.2.4v.4c0,0-.2.4-.2.4v.4c0,0,0,.4,0,.4v.5s0,17.9,0,17.9h-5.5ZM1187,166.6v18.6s0,.7,0,.7v.7c0,0-.2.7-.2.7v.7c-.1,0-.3.7-.3.7l-.2.7-.2.6-.3.6-.3.6-.3.6-.4.6-.4.6-.4.6-.5.5-.5.6-.6.5-.5.4-.6.4-.6.4-.6.3-.6.3-.6.3-.6.3-.6.2-.6.2-.7.2h-.7c0,.1-.7.2-.7.2h-.7c0,0-.7.1-.7.1h-.7s-.7,0-.7,0h-.7s-.7-.1-.7-.1h-.7c0-.1-.7-.2-.7-.2l-.7-.2-.6-.2-.6-.2-.6-.3-.6-.3-.6-.3-.6-.3-.6-.4-.6-.4-.5-.4-.6-.5-.5-.5-.5-.5-.4-.6-.4-.6-.4-.6-.3-.6-.3-.6-.3-.6-.2-.6-.2-.7-.2-.7v-.7c-.1,0-.3-.7-.3-.7v-.7c0,0-.1-.7-.1-.7v-.7s0-17.9,0-17.9h5.5v18.3s0,.4,0,.4v.4c0,0,.1.4.1.4v.4c0,0,.2.4.2.4v.4c.1,0,.3.4.3.4l.2.4.2.4.2.4.2.4.2.4.3.4.3.4.3.3.3.3.3.3.4.3.4.3.4.2.4.2.4.2.4.2h.4c0,.1.4.3.4.3h.4c0,.1.4.2.4.2h.4c0,0,.4.1.4.1h.4s.4,0,.4,0h.5s.4,0,.4,0h.4c0,0,.4-.1.4-.1h.4c0,0,.4-.2.4-.2h.4c0-.1.4-.3.4-.3l.4-.2.4-.2.4-.2.4-.2.3-.3.3-.3.3-.3.3-.3.3-.3.3-.3.3-.3.3-.4.2-.4.2-.4.2-.4.2-.4v-.4c.1,0,.3-.4.3-.4v-.4c.1,0,.2-.4.2-.4v-.4c0,0,.1-.4.1-.4v-.4s0-.5,0-.5v-17.8h5.5ZM1146.6,180.3v-.5s0-.4,0-.4v-.4c0,0-.1-.4-.1-.4v-.4c0,0-.2-.4-.2-.4v-.4c-.1,0-.3-.4-.3-.4l-.2-.4-.2-.4-.2-.4-.2-.4-.3-.3-.3-.3-.3-.3-.3-.3-.3-.3-.3-.3-.3-.3-.3-.3-.4-.2-.4-.2-.4-.2-.4-.2h-.4c0-.1-.4-.3-.4-.3h-.4c0-.1-.4-.2-.4-.2h-.4c0,0-.4-.1-.4-.1h-.4s-.5,0-.5,0h-.5s-.4,0-.4,0h-.4c0,0-.4.1-.4.1h-.4c0,0-.4.2-.4.2h-.4c0,.1-.4.3-.4.3l-.4.2-.4.2-.4.2-.4.2-.4.3-.3.3-.3.3-.3.3-.3.3-.3.3-.3.3-.3.3-.2.4-.2.4-.2.4-.2.4-.2.4v.4c-.1,0-.2.4-.2.4v.4c0,0-.2.4-.2.4v.4c0,0,0,.4,0,.4v.5s0,4.1,0,4.1v.5s0,.4,0,.4v.4c0,0,.1.4.1.4v.4c0,0,.2.4.2.4v.4c.1,0,.3.4.3.4l.2.4.2.4.2.4.2.4.3.4.3.3.3.3.3.3.3.3.4.3.4.3.4.3.4.2.4.2.4.2.4.2h.4c0,.1.4.3.4.3h.4c0,.1.4.2.4.2h.4c0,0,.4.1.4.1h.4s.4,0,.4,0h.5s.4,0,.4,0h.4c0,0,.4-.1.4-.1h.4c0,0,.4-.2.4-.2h.4c0-.1.4-.3.4-.3l.4-.2.4-.2.4-.2.4-.2.3-.3.3-.3.3-.3.3-.3.3-.3.3-.3.3-.3.3-.4.2-.4.2-.4.2-.4.2-.4v-.4c.1,0,.3-.4.3-.4v-.4c.1,0,.2-.4.2-.4v-.4c0,0,.1-.4.1-.4v-.4s0-.5,0-.5v-4.1ZM1149.3,202l-.4.5-.5.5-.5.5-.5.5-.5.5-.6.4-.6.4-.6.4-.6.3-.6.3-.6.3-.6.2-.7.2-.7.2h-.7c0,.1-.7.3-.7.3h-.7c0,0-.7.1-.7.1h-.7s-.8,0-.8,0h-.7c0,0-.7-.1-.7-.1h-.7c0-.1-.7-.3-.7-.3l-.7-.2-.7-.2-.7-.3-.6-.3-.6-.3-.6-.4-.6-.4-.6-.4-.6-.5-.5-.5-1.3-1.4,3.9-3.9,1.2,1.2.3.3.3.3.4.3.4.2.4.2.4.2.4.2.4.2h.4c0,.1.4.3.4.3h.4c0,0,.4.2.4.2h.5c0,0,.5,0,.5,0h.5s.5,0,.5,0h.4s.4,0,.4,0h.4c0,0,.4-.2.4-.2h.4c0-.1.4-.2.4-.2h.4c0-.1.4-.3.4-.3l.4-.2.4-.2.4-.2.3-.3.3-.3.3-.3.3-.3.3-.3.3-.3.3-.3.3-.3.2-.3.2-.3.2-.3.2-.4v-.4c.1,0,.3-.4.3-.4v-.4c.1,0,.1,0,.1,0l-.4.3-.6.4-.7.3-.7.3h-.4c0,.1-.4.3-.4.3h-.4c0,.1-.4.2-.4.2h-.4c0,.1-.4.2-.4.2h-.4c0,0-.4.2-.4.2h-.4c0,0-.4.1-.4.1h-.4s-.4,0-.4,0h-.4s-.4,0-.4,0h-.4s-.4,0-.4,0h-.7s-.7,0-.7,0h-.7c0,0-.7-.2-.7-.2h-.7c0-.1-.7-.3-.7-.3l-.6-.2-.6-.2-.6-.3-.6-.3-.6-.3-.6-.3-.6-.4-.6-.4-.5-.4-.6-.5-.5-.5-.5-.5-.4-.6-.4-.6-.4-.6-.3-.6-.3-.6-.3-.6-.2-.6-.2-.7-.2-.7v-.7c-.1,0-.3-.7-.3-.7v-.7c0,0-.1-.7-.1-.7v-.7s0-4.2,0-4.2v-.7s0-.7,0-.7v-.7c0,0,.2-.7.2-.7v-.7c.1,0,.3-.7.3-.7l.2-.7.2-.6.3-.6.3-.6.3-.6.4-.6.4-.6.4-.6.5-.5.5-.5.5-.5.5-.5.6-.4.6-.4.6-.4.6-.3.6-.3.6-.3.6-.2.7-.2.7-.2h.7c0-.1.7-.3.7-.3h.7c0,0,.7-.1.7-.1h.7s.7,0,.7,0h.7s.7.1.7.1h.7c0,.1.7.3.7.3l.7.2.7.2.6.2.6.3.6.3.6.3.6.4.6.4.6.4.5.5.5.5.5.5.5.5.4.6.4.6.4.6.3.6.3.6.3.6.2.6.2.7.2.7v.7c.1,0,.3.7.3.7v.7c0,0,.1.7.1.7v.7s0,13.6,0,13.6v.7s0,.7,0,.7v.7c0,0-.2.6-.2.6v.6c-.1,0-.3.6-.3.6l-.2.6-.2.6-.3.6-.3.6-.3.6-.4.6-.4.6ZM1111.3,177l-.2-.4-.2-.4-.2-.4-.2-.4-.3-.3-.3-.3-.3-.3-.3-.3-.3-.3-.3-.3-.3-.3-.3-.3-.4-.2-.4-.2-.4-.2-.4-.2h-.4c0-.1-.4-.3-.4-.3h-.4c0-.1-.4-.2-.4-.2h-.4c0,0-.4-.1-.4-.1h-.4s-.5,0-.5,0h-.5s-.4,0-.4,0h-.4c0,0-.4.1-.4.1h-.4c0,0-.4.2-.4.2h-.4c0,.1-.4.3-.4.3l-.4.2-.4.2-.4.2-.4.2-.4.3-.3.3-.3.3-.3.3-.3.3-.3.3-.3.3-.3.3-.2.4-.2.4-.2.4-.2.4-.2.4v.4c-.1,0-.2.4-.2.4v.4c0,0-.2.4-.2.4v.4c0,0,0,.2,0,.2h17.5v-.2s0-.4,0-.4v-.4c0,0-.2-.4-.2-.4v-.4c-.1,0-.2-.4-.2-.4v-.4ZM1111.2,196.1l-.6.4-.6.3-.6.3-.6.3-.7.2-.7.2-.7.2h-.7c0,.1-.7.3-.7.3h-.7c0,0-.7.1-.7.1h-.7s-.7,0-.7,0h-.7s-.7-.1-.7-.1h-.7c0-.1-.7-.2-.7-.2l-.7-.2-.6-.2-.6-.2-.6-.3-.6-.3-.6-.3-.6-.3-.6-.4-.6-.4-.5-.4-.6-.5-.5-.5-.5-.5-.4-.6-.4-.6-.4-.6-.3-.6-.3-.6-.3-.6-.2-.6-.2-.7-.2-.7v-.7c-.1,0-.3-.7-.3-.7v-.7c0,0-.1-.7-.1-.7v-.7s0-4.2,0-4.2v-.7s0-.7,0-.7v-.7c0,0,.2-.7.2-.7v-.7c.1,0,.3-.7.3-.7l.2-.7.2-.6.3-.6.3-.6.3-.6.4-.6.4-.6.4-.6.5-.5.5-.5.5-.5.5-.5.6-.4.6-.4.6-.4.6-.3.6-.3.6-.3.6-.2.7-.2.7-.2h.7c0-.1.7-.3.7-.3h.7c0,0,.7-.1.7-.1h.7s.7,0,.7,0h.7s.7.1.7.1h.7c0,.1.7.3.7.3l.7.2.7.2.6.2.6.3.6.3.6.3.6.4.6.4.6.4.5.5.5.5.5.5.5.5.4.6.4.6.4.6.4.6.3.6.3.6.2.6.2.7.2.7v.7c.1,0,.3.7.3.7v.7c0,0,.1.7.1.7v.7s0,4.8,0,4.8h-23v.2s0,.4,0,.4v.4c0,0,.2.4.2.4v.4c.1,0,.2.4.2.4l.2.4.2.4.2.4.2.4.2.4.3.4.3.3.3.3.3.3.3.3.4.3.4.3.4.3.4.2.4.2.4.2.4.2h.4c0,.1.4.3.4.3h.4c0,.1.4.2.4.2h.4c0,0,.4.1.4.1h.4s.4,0,.4,0h.5s.5,0,.5,0h.4c0,0,.4-.1.4-.1h.4c0,0,.4-.2.4-.2h.4c0-.1.4-.3.4-.3l.4-.2.4-.2.4-.2.4-.3.4-.3.4-.3.4-.3,1.2-1.2,3.9,3.9-1.4,1.3-.5.5-.6.4-.6.4ZM1071.4,198.2h-.5c0,0-.5-.2-.5-.2h-.5c0-.1-.5-.2-.5-.2l-.4-.2-.4-.2-.4-.2-.4-.2-.4-.3-.4-.3-.4-.3-.4-.3-.4-.3-.3-.4-.3-.4-1.1-1.4,4.5-3.2,1,1.3.3.3.3.3.3.2.4.2.4.2h.4c0,.1.5.2.5.2h.5c0,0,.4,0,.4,0h.4s.4,0,.4,0h.4c0-.1.4-.3.4-.3l.4-.2.4-.3.4-.3.3-.3.3-.3.2-.3.2-.4.2-.4v-.4c.1,0,.2-.5.2-.5v-.4c0,0,0-.4,0-.4v-.3s0-.3,0-.3v-.3s0-.3,0-.3v-.3s0-.2,0-.2v-.2c0,0-.1-.2-.1-.2v-.2c0,0-.2-.2-.2-.2v-.2c-.1,0-.2-.1-.2-.1h-.1c0-.1-.2-.3-.2-.3l-.2-.2-.2-.2-.2-.2-.2-.2-.2-.2-.2-.2-.2-.2-.2-.2-.3-.2-.3-.2-.3-.2-.3-.2-.3-.2h-.3c0-.1-.3-.3-.3-.3l-.3-.2-.3-.2-.3-.2-.3-.2-.3-.2-.3-.2-.3-.2-.3-.2-.3-.2-.3-.2-.3-.2-.3-.2-.3-.2-.3-.2-.3-.2-.2-.2-.3-.2-.3-.3-.3-.3-.2-.3-.2-.4-.2-.4v-.4c-.1,0-.3-.4-.3-.4v-.4c0,0-.2-.4-.2-.4v-.4s0-.5,0-.5v-.5s0-.5,0-.5v-.5s0-.5,0-.5v-.5c0,0,.2-.4.2-.4v-.4c0,0,.2-.4.2-.4v-.4c.1,0,.3-.4.3-.4l.2-.4.2-.4.2-.4.2-.3.2-.3.3-.3.3-.3.3-.3.3-.3.3-.3.3-.3.3-.2.4-.2.4-.2.4-.2.4-.2h.4c0-.1.4-.3.4-.3h.4c0-.1.4-.2.4-.2h.4c0,0,.4-.1.4-.1h.4s.4,0,.4,0h.4s.4,0,.4,0h.5c0,0,.5.2.5.2h.4c0,.1.4.2.4.2h.4c0,.1.4.3.4.3l.4.2.4.2.4.2.3.2.3.3.3.3.3.3.3.3.3.3.3.3,1,1.3-4.4,3.1-.9-1.2-.2-.2-.2-.2-.2-.2h-.3c0-.1-.3-.3-.3-.3h-.3c0-.1-.3-.2-.3-.2h-.3s-.3,0-.3,0h-.3s-.3,0-.3,0h-.3c0,0-.3.2-.3.2h-.3c0,.1-.3.3-.3.3l-.2.2-.2.2-.2.2-.2.2v.2c-.1,0-.2.3-.2.3v.3c0,0-.2.3-.2.3v.6c0,0,0,.5,0,.5v.4c0,0,.2.4.2.4v.3c.1,0,.3.3.3.3l.2.3.3.3.4.3.5.3.5.3.5.3.5.3.5.3.5.3.6.3.6.4.6.4.6.4.6.4.5.5.5.5.5.5.5.5.3.3.2.4.2.4.2.4.2.4v.4c.1,0,.3.4.3.4v.5c0,0,.2.5.2.5v.5s0,.5,0,.5v1s0,.5,0,.5v.5c0,0-.1.6-.1.6v.5c-.1,0-.2.5-.2.5v.5c-.1,0-.3.5-.3.5l-.2.5-.2.4-.2.4-.2.4-.3.4-.3.4-.3.4-.3.4-.3.3-.4.3-.4.3-.5.3-.5.2-.4.2-.4.2-.4.2h-.4c0,.1-.4.3-.4.3h-.4c0,.1-.4.2-.4.2h-.5c0,0-.5.2-.5.2h-.5c0,0-.5,0-.5,0h-.5s-.5,0-.5,0h-.5s-.5,0-.5,0Z"/>
  <path class="st2" d="M48.2,158.4c-16.4-.9-29.9-6.4-42-17.5-8-7.5-8.4-19.1-.9-27.1l7.6-8.1c7.6-8.1,19.5-8.6,27.4-.8l1.4,1.4c9.2,8.6,24.1,2.2,24.2-10.4V19.5c0-11.1,8.4-19.5,19.5-19.5h111.4c11.1,0,19.5,8.3,19.5,19.5v119.5c0,11.1-8.4,19.5-19.5,19.5H48.2Z"/>
  <path class="st1" d="M98,108.6v29.4c0,1.3-1,2.3-2.3,2.3h-9.2c-1.3,0-2.3-1-2.3-2.3v-7.3l.3-.3,1-.9.9-1,.8-.9.8-.9.8-.9.8-.9.7-1,.7-1,.7-1,.7-1,.6-1,.6-1,.6-1,.5-1,.5-1,.5-1.1.5-1.1.4-1.1.4-1.1.4-1.1.3-1.1M196.1,140.4h-9.2c-1.3,0-2.3-1-2.3-2.3V38.4l-36.7,100.5c-.3.9-1.2,1.5-2.1,1.5h-9c-.9,0-1.7-.6-2-1.5l-36.7-100.5v60.5c0,0-.2,1.2-.2,1.2v1.2c-.1,0-.3,1.1-.3,1.1l-.2,1.1-.2,1.1-.2,1.1-.3,1.1-.3,1.1-.3,1.1-.3,1.1-.4,1.1-.4,1.1-.4,1-.4,1-.5,1-.5,1-.5,1-.6,1-.6,1-.6,1-.6,1-.7.9-.7.9-.7.9-.7.9-.8.9-.8.9-.8.9-.9.9h-.1c0,0,0,0,0,0l-.8.7-.9.7-.9.7-.9.7-.9.7-.9.6-.9.6-.9.6-.9.6-1,.5-1,.5-1,.5-1,.5-1,.4-1,.4-1,.4-1,.4-1,.4-1,.3-1.1.3-1.1.3-1.1.3-1.1.2-1.1.2-1.1.2-1.1.2h-1.1c0,.1-1.1.2-1.1.2h-1.1c0,0-1.2.1-1.2.1h-1.2s-1.2,0-1.2,0h-1.2s-1.2,0-1.2,0h-1.2c0,0-1.1-.1-1.1-.1h-1.1c0-.1-1.1-.2-1.1-.2l-1.1-.2-1.1-.2-1.1-.2-1.1-.2-1.1-.3-1.1-.3-1-.3-1-.3-1-.4-1-.4-1-.4-1-.4-1-.4-1-.5-1-.5-.9-.5-.9-.5-.9-.6-.9-.6-.9-.6-.9-.6-.9-.7-.9-.7-.8-.7-.8-.7-.8-.7c-.7-.6-.9-2.2,0-3.1l6-6.5c.7-.8,2.5-.9,3.3-.2l.6.6.6.6.6.6.6.5.6.5.6.5.6.5.7.5.7.4.7.4.7.4.7.4.7.4.7.3.7.3.7.3.7.3.7.3.7.3.7.2.7.2.8.2.8.2.8.2h.8c0,.1.8.3.8.3h.8c0,.1.8.2.8.2h.8c0,0,.8.1.8.1h.8s.8,0,.8,0h.8s.8,0,.8,0h.8s.8-.1.8-.1h.8c0,0,.8-.2.8-.2h.8c0-.1.8-.3.8-.3l.8-.2.8-.2.8-.2.7-.2.7-.2.7-.2.7-.3.7-.3.7-.3.7-.3.7-.3.7-.4.7-.4.7-.4.7-.4.7-.4.7-.5.7-.5.7-.5.6-.5.6-.5.6-.5.6-.6.6-.6.6-.6.6-.6.6-.6.5-.6.5-.6.5-.6.5-.6.5-.7.4-.7.4-.7.4-.7.4-.7.4-.7.3-.7.3-.7.3-.7.3-.7.3-.7.3-.7.2-.7.2-.7.2-.8.2-.8.2-.8v-.8c.1,0,.3-.8.3-.8v-.8c.1,0,.2-.8.2-.8v-.8c0,0,.1-.8.1-.8v-.8s0-.8,0-.8V20.4c0-1.3,1-2.3,2.3-2.3h17.2c1,0,1.9.6,2.2,1.5l35.4,96.8,35.4-96.8c.3-.9,1.3-1.5,2.2-1.5h17.2c1.3,0,2.3,1,2.3,2.3v117.7c0,1.3-1,2.3-2.3,2.3Z"/>
</svg>