<?xml version="1.0" encoding="UTF-8"?>
<svg id="Layer_1" xmlns="http://www.w3.org/2000/svg" version="1.1" viewBox="0 0 76.7 76.7">
  <!-- Generator: Adobe Illustrator 30.1.0, SVG Export Plug-In . SVG Version: 2.1.1 Build 136)  -->
  <defs>
    <style>
      .st0 {
        fill: #fff;
      }

      .st0, .st1 {
        fill-rule: evenodd;
      }

      .st1 {
        fill: #0062ae;
      }
    </style>
  </defs>
  <path class="st1" d="M17.2,66.3c-5.8-.3-10.6-2.2-14.8-6.2-2.8-2.6-3-6.7-.3-9.6l2.7-2.9c2.7-2.9,6.9-3,9.7-.3l.5.5c3.2,3,8.5.8,8.6-3.7v-26.9c0-3.9,3-6.9,6.9-6.9h39.3c3.9,0,6.9,2.9,6.9,6.9v42.2c0,3.9-2.9,6.9-6.9,6.9"/>
  <path class="st0" d="M34.7,48.7v10.4c0,.4-.4.8-.8.8h-3.3c-.4,0-.8-.4-.8-.8v-2.6h.1c0-.1.3-.4.3-.4l.3-.3.3-.3.3-.3.3-.3.3-.3.3-.3.3-.3.2-.3.2-.3.2-.4.2-.4.2-.4.2-.4.2-.4.2-.4.2-.4.2-.4v-.4c.1,0,.3-.4.3-.4v-.4M69.3,59.9h-3.3c-.4,0-.8-.4-.8-.8V23.9l-13,35.5c-.1.3-.4.5-.7.5h-3.2c-.3,0-.6-.2-.7-.5l-13-35.5v21.3s0,.4,0,.4v.4s0,.4,0,.4v.4c0,0-.1.4-.1.4v.4c0,0-.2.4-.2.4v.4c0,0-.2.4-.2.4v.4c-.1,0-.2.4-.2.4v.4c-.1,0-.3.4-.3.4l-.2.4-.2.4-.2.4-.2.4-.2.3-.2.3-.2.3-.2.3-.2.3-.2.3-.3.3-.3.3-.3.3-.3.3-.3.3-.3.3h0s0,0,0,0l-.3.3-.3.3-.3.3-.3.2-.3.2-.3.2-.3.2-.3.2-.3.2-.3.2-.3.2-.3.2-.3.2-.4.2h-.4c0,.1-.4.3-.4.3h-.4c0,.1-.4.3-.4.3h-.4c0,.1-.4.2-.4.2h-.4c0,0-.4.2-.4.2h-.4c0,0-.4.2-.4.2h-.4c0,0-.4.1-.4.1h-.4s-.4,0-.4,0h-.4s-.4,0-.4,0h-.4s-.4,0-.4,0h-.4s-.4,0-.4,0h-.4s-.4,0-.4,0h-.4s-.4,0-.4,0h-.4c0,0-.4-.1-.4-.1h-.4c0,0-.4-.2-.4-.2h-.4c0,0-.4-.2-.4-.2h-.4c0-.1-.4-.2-.4-.2h-.4c0-.1-.4-.3-.4-.3h-.4c0-.1-.3-.3-.3-.3l-.3-.2-.3-.2-.3-.2-.3-.2-.3-.2-.3-.2-.3-.2-.3-.2-.3-.2-.3-.2-.3-.2-.3-.3-.3-.3-.3-.3c-.2-.2-.3-.8,0-1.1l2.1-2.3c.3-.3.9-.3,1.2,0l.2.2.2.2.2.2.2.2.2.2.2.2.2.2.2.2.2.2h.2c0,.1.2.3.2.3h.2c0,.1.2.3.2.3h.2c0,.1.2.2.2.2h.2c0,.1.3.2.3.2h.3c0,0,.3.2.3.2h.3c0,0,.3.2.3.2h.3c0,0,.3.1.3.1h.3c0,0,.3.1.3.1h.3s.3,0,.3,0h.3s.3,0,.3,0h.3s.3,0,.3,0h.3s.3,0,.3,0h.3s.3,0,.3,0h.3s.3,0,.3,0h.3s.3,0,.3,0h.3s.3-.1.3-.1h.3c0,0,.3-.1.3-.1h.3c0,0,.3-.2.3-.2h.3c0,0,.3-.2.3-.2h.3c0,0,.3-.2.3-.2h.2c0-.1.2-.2.2-.2h.2c0-.1.2-.3.2-.3h.2c0-.1.2-.3.2-.3l.2-.2.2-.2.2-.2.2-.2.2-.2.2-.2.2-.2.2-.2.2-.2.2-.2.2-.2.2-.2.2-.2.2-.2.2-.2.2-.2.2-.2.2-.2v-.2c.1,0,.3-.2.3-.2v-.2c.1,0,.3-.2.3-.2v-.2c.1,0,.2-.2.2-.2v-.3c.1,0,.2-.3.2-.3v-.3c0,0,.2-.3.2-.3v-.3c0,0,.2-.3.2-.3v-.3c0,0,.1-.3.1-.3v-.3c0,0,.1-.3.1-.3v-.3s0-.3,0-.3v-.3s0-.3,0-.3v-.3s0-.3,0-.3v-.3s0-26.6,0-26.6c0-.4.4-.8.8-.8h6.1c.3,0,.7.2.8.5l12.5,34.2,12.5-34.2c.1-.3.4-.5.8-.5h6.1c.4,0,.8.4.8.8v41.5c0,.4-.4.8-.8.8Z"/>
</svg>